<svg xmlns="http://www.w3.org/2000/svg" width="29" height="29" viewBox="0 0 29 29">
  <path id="Account_Ecommerce_Shopping_Buy_Sale_Market" data-name="Account Ecommerce Shopping Buy Sale Market" d="M21.5,7.5a14,14,0,1,0,14,14A14.016,14.016,0,0,0,21.5,7.5Zm-9,23.957a.282.282,0,0,0,.143-.242,8.857,8.857,0,1,1,17.714,0,.282.282,0,0,0,.143.242,13.4,13.4,0,0,1-18,0Zm18.421-.4a9.442,9.442,0,0,0-7.535-9.082,4.857,4.857,0,1,0-3.772,0,9.442,9.442,0,0,0-7.535,9.082,13.429,13.429,0,1,1,18.842,0ZM21.5,21.786A4.286,4.286,0,1,1,25.786,17.5,4.29,4.29,0,0,1,21.5,21.786Z" transform="translate(-7 -7)" fill="#fff" stroke="#fff" stroke-width="1"/>
</svg>
